<svg xmlns="http://www.w3.org/2000/svg" viewBox="0 0 2601.72 649.69"><defs><style>.cls-1,.cls-2{fill:#fff;}.cls-2{font-size:240.35px;font-family:TYPOGRAPHPRO-Light, TYPOGRAPH PRO;font-weight:300;letter-spacing:-0.05em;}</style></defs><g id="Layer_2" data-name="Layer 2"><g id="Layer_1-2" data-name="Layer 1"><path class="cls-1" d="M203.51,119.13l261,199.56L107.88,517.56l95.63-398.43M172.62,0a31.85,31.85,0,0,0-31.08,24.45L.93,610.3c-5.12,21.31,11.73,39.39,31,39.39a31.61,31.61,0,0,0,15.52-4.13L571.84,353.15A31.87,31.87,0,0,0,575.68,300L191.88,6.57A31.51,31.51,0,0,0,172.62,0Z"/><path class="cls-1" d="M776.59,117.36C743.76,74,694.88,51.12,635.24,51.12c-67.69,0-130.72,29.68-180.82,84.37l65.76,50.28c27.09-27.8,65.12-52.29,115.06-52.29,33.81,0,58.57,11,75.71,33.61,16.57,21.89,25.7,55.12,25.7,93.58,0,59.7-21.09,124.88-56.41,174.35-26.44,37-72,81.19-139.1,81.19-33.8,0-58.57-11-75.7-33.61-1.21-1.59-2.36-3.24-3.49-5l-72,40.17a175.34,175.34,0,0,0,9.88,14.51c32.83,43.33,81.71,66.24,141.35,66.24,79.66,0,152.86-41.09,206.12-115.69C792.19,420,819,336.89,819,260.67,819,203.55,804.34,154,776.59,117.36Z"/><text class="cls-2" transform="translate(1906.41 414.62)">Media</text><path class="cls-1" d="M959.1,414.59H894V227.51h65.1a102.44,102.44,0,0,1,37.52,6.89,90,90,0,0,1,51.07,50,92.86,92.86,0,0,1,7,35.82,98.58,98.58,0,0,1-6.65,36.31,90.94,90.94,0,0,1-50,50.58A102.23,102.23,0,0,1,959.1,414.59Zm-36.06-29H959.1a72.66,72.66,0,0,0,27-4.84,63.39,63.39,0,0,0,21.06-13.43,59.53,59.53,0,0,0,13.67-20.57,70.13,70.13,0,0,0,4.84-26.51,64.16,64.16,0,0,0-5-25.41,60.79,60.79,0,0,0-13.92-20.21,63.31,63.31,0,0,0-21-13.31,72.65,72.65,0,0,0-26.63-4.72H923Z"/><path class="cls-1" d="M1352.44,296.26H1322c-.16,60.27-8.76,86-35.35,86s-35.45-24.43-35.45-86h-29.52c0,50.64-2.61,118.19,65,118.19,17.32,0,39.49-11.45,39.49-20.34v29.27c0,20.13-12.29,40.74-38.18,40.74-14.48,0-30.61-8.65-36.76-29.5h-29.5c0,18.78,19.67,59.29,64.95,59.29,37.74,0,65.82-27.67,65.82-62.58V311.71C1352.45,306.32,1352.44,301.8,1352.44,296.26Z"/><path class="cls-1" d="M1814.23,379.79a38,38,0,0,1-4.06,3.34,34.68,34.68,0,0,1-6.85,3.8l-.85.32c-.47.18-.94.35-1.42.51l-1.13.34-1.24.34q-.6.15-1.2.27c-.43.1-.87.18-1.31.25l-1.15.19c-.51.07-1,.12-1.57.17-.31,0-.63.07-1,.09-.86,0-1.72.09-2.6.09a33.65,33.65,0,0,1-20-6.37,36,36,0,0,1-12.75-16.1h41.52v-.16h50.85a61.48,61.48,0,0,0,1.33-12.52V354a59.37,59.37,0,0,0-4.74-23.34,66.33,66.33,0,0,0-3.49-7h.13a63.1,63.1,0,0,0-21.77-22,60.57,60.57,0,0,0-27.65-8.24l-.59,0c-.93,0-1.86-.07-2.8-.07a60.69,60.69,0,0,0-23.28,4.52,63.4,63.4,0,0,0-32.89,32.89,60.69,60.69,0,0,0-4.52,23.28v.23a60.69,60.69,0,0,0,4.52,23.28,63.4,63.4,0,0,0,32.89,32.89A60.69,60.69,0,0,0,1789.9,415c.94,0,1.87,0,2.8-.07l.59,0a60.57,60.57,0,0,0,27.65-8.24c9.11-5.56,18.08-15.2,21.77-22C1842.92,384.41,1814.23,379.79,1814.23,379.79ZM1769,321.19a35.19,35.19,0,0,1,20.93-6.65c.92,0,1.83,0,2.72.09l1,.1c.55,0,1.1.1,1.64.18s.8.12,1.2.19.91.16,1.37.26.83.18,1.25.29.86.22,1.29.35.8.23,1.19.36,1,.34,1.48.53c.3.11.59.21.88.33a35.72,35.72,0,0,1,7.16,4A37.63,37.63,0,0,1,1824.4,338h-68.77A37.63,37.63,0,0,1,1769,321.19Z"/><path class="cls-1" d="M1690.62,311.73a65.39,65.39,0,0,1,13.67,20.57,61.91,61.91,0,0,1,4.72,24v58.32h-29V356.27a32.92,32.92,0,0,0-2.67-13.2,34,34,0,0,0-18-18,33,33,0,0,0-13.19-2.66h-.24a33,33,0,0,0-13.19,2.66,34,34,0,0,0-18,18,32.92,32.92,0,0,0-2.67,13.2v58.32h-29V296.26h26.63V305a61.49,61.49,0,0,1,36.3-11.59h.24a61.8,61.8,0,0,1,24,4.69A65,65,0,0,1,1690.62,311.73Z"/><path class="cls-1" d="M1167.82,296.26v8a60.74,60.74,0,1,0,0,99.66v10.91h29.89V296.26Zm-34.71,92.56a34.71,34.71,0,1,1,34.71-34.71A34.71,34.71,0,0,1,1133.11,388.82Z"/><path class="cls-1" d="M1468,227.81a93.52,93.52,0,1,0,93.52,93.52A93.52,93.52,0,0,0,1468,227.81ZM1468,383a63.63,63.63,0,1,1,63.63-63.63A63.63,63.63,0,0,1,1468,383Z"/></g></g></svg>