<svg xmlns="http://www.w3.org/2000/svg" xmlns:xlink="http://www.w3.org/1999/xlink" viewBox="0 0 100 158.41">
  <defs>
    <style>
      .cls-1 {
        fill: url(#linear-gradient);
      }
    </style>
    <linearGradient id="linear-gradient" x1="1.7" y1="86" x2="134.69" y2="25.46" gradientUnits="userSpaceOnUse">
      <stop offset="0" stop-color="#00a65a" />
      <stop offset="1" stop-color="#ffd146" />
    </linearGradient>
  </defs>
  <g id="Layer_1-2" data-name="Layer 1">
    <path class="cls-1"
      d="M27.7,153.62,91,90.33a16.23,16.23,0,0,0,0-22.94L63.57,40a13.39,13.39,0,0,0-19.32.38l-11,11.87a6,6,0,0,1-8.61.16h0a6,6,0,0,1-.09-8.32l17-17.84a6,6,0,0,0-.1-8.33L28.39,4.78C18.16-5.44.69,1.8.69,16.26v90.22a6,6,0,0,0,10.18,4.21L50.33,71.23a6,6,0,0,1,8.44,0l.62.62a6,6,0,0,1,0,8.44L1.75,137.93A6,6,0,0,0,0,142.15H0C0,156.6,17.48,163.84,27.7,153.62Z" />
  </g>
</svg>