<svg xmlns="http://www.w3.org/2000/svg" viewBox="0 0 853.08 237.92">
  <defs>
    <style>
      .cls-1 {
        fill: #49b85b;
      }

      .cls-2 {
        fill: #fff;
      }
    </style>
  </defs>
  <g id="Layer_2" data-name="Layer 2">
    <g id="Layer_1-2" data-name="Layer 1">
      <path class="cls-1"
        d="M60.41,230.73l138.05-95c13.82-9.52,13.82-25,0-34.47L138.65,60c-11.74-8.09-30.89-7.82-42.14.58L72.63,78.43c-5,3.74-13.55,3.85-18.77.24h0c-5-3.44-5.07-9-.21-12.5L90.71,39.38c4.87-3.53,4.77-9.08-.22-12.52L61.91,7.19C39.62-8.17,1.5,2.71,1.5,24.42v135.5c0,8,14,12,22.21,6.34L109.78,107c5.08-3.5,13.32-3.5,18.4,0l1.35.93c5.08,3.5,5.08,9.17,0,12.67L3.81,207.17c-2.44,1.68-3.81,4-3.81,6.33H0C0,235.21,38.12,246.09,60.41,230.73Z" />
      <path class="cls-2"
        d="M233.16,160.59a11,11,0,0,1,6.5-19.88,10.88,10.88,0,0,1,6.88,2.11c11.08,8.79,22.93,13.76,37.46,13.76s23.7-6.88,23.7-16.82v-.39c0-9.55-5.35-14.71-30.2-20.45C249,112,233,103.63,233,79v-.38c0-22.94,19.11-38.8,45.68-38.8,16.82,0,30.39,4.39,42.44,12.42a10.63,10.63,0,0,1,5.16,9.37,10.93,10.93,0,0,1-11.09,10.89A11.36,11.36,0,0,1,309,70.75c-10.32-6.69-20.26-10.13-30.77-10.13-13.76,0-21.79,7.07-21.79,15.87v.38c0,10.32,6.11,14.91,31.92,21,28.29,6.88,42.82,17,42.82,39.18v.38c0,25-19.69,39.95-47.79,39.95A83.27,83.27,0,0,1,233.16,160.59Z" />
      <path class="cls-2"
        d="M433.1,165a11.66,11.66,0,0,1-23.32,0v-5.16c-6.5,9.55-15.87,17.77-31.54,17.77-22.75,0-35.94-15.29-35.94-38.8V85.09a11.57,11.57,0,1,1,23.13,0v46.83c0,15.67,7.84,24.47,21.6,24.47,13.38,0,22.75-9.18,22.75-24.85V85.09a11.58,11.58,0,0,1,11.66-11.66A11.7,11.7,0,0,1,433.1,85.09Z" />
      <path class="cls-2"
        d="M450.49,46.48A11.38,11.38,0,0,1,462,35a11.54,11.54,0,0,1,11.66,11.47V165a11.57,11.57,0,0,1-23.13,0Z" />
      <path class="cls-2"
        d="M485.47,125.61v-.38c0-28.86,22.94-52.76,53.91-52.76S593.09,96,593.09,124.85v.38c0,28.67-22.94,52.57-54.1,52.57C508.22,177.8,485.47,154.28,485.47,125.61Zm84.49,0v-.38c0-17.78-12.81-32.5-31-32.5-18.54,0-30.39,14.53-30.39,32.12v.38c0,17.59,12.81,32.3,30.78,32.3C558.11,157.53,570,143,570,125.61Z" />
      <path class="cls-2"
        d="M603.79,85.09a11.42,11.42,0,0,1,11.47-11.66,11.58,11.58,0,0,1,11.66,11.66v5c6.5-9.37,15.87-17.59,31.54-17.59,22.75,0,35.94,15.3,35.94,38.61V165a11.26,11.26,0,0,1-11.47,11.47A11.42,11.42,0,0,1,671.27,165V118.16c0-15.68-7.84-24.66-21.6-24.66-13.38,0-22.75,9.37-22.75,25V165a11.57,11.57,0,0,1-23.13,0Z" />
      <path class="cls-2"
        d="M715.42,197.48a9.47,9.47,0,0,1-6.5-9.17,9.76,9.76,0,0,1,9.75-9.56,9.06,9.06,0,0,1,4.21,1,61.69,61.69,0,0,0,31,8c20.65,0,31.92-10.7,31.92-31v-7.84c-8.41,10.9-18.92,18.54-35.55,18.54-23.7,0-45.87-17.58-45.87-47.21v-.38c0-29.82,22.36-47.41,45.87-47.41,17,0,27.53,7.84,35.36,17.21V84.9a11.57,11.57,0,0,1,23.13.19v69.77c0,17-4.39,29.63-12.8,38-9.18,9.17-23.32,13.57-41.48,13.57A87.17,87.17,0,0,1,715.42,197.48ZM786,120.07v-.38C786,103.25,772.38,92,756.33,92s-28.67,11.09-28.67,27.72v.38c0,16.44,12.8,27.72,28.67,27.72C772.38,147.79,786,136.51,786,120.07Z" />
      <path class="cls-2"
        d="M825.71,49.34c-.38-4.58,2.3-8.22,6.69-8.22h13.77c4.39,0,7.26,3.64,6.88,8.22l-6.69,78c-.38,4.21-3.25,6.88-7.07,6.88s-6.5-2.67-6.89-6.88Zm13.58,98.83c7.83,0,13.57,5.73,13.57,13.19v1.91c0,7.45-5.74,13.19-13.57,13.19-7.65,0-13.58-5.74-13.58-13.19v-1.91C825.71,153.9,831.64,148.17,839.29,148.17Z" />
      <path class="cls-1"
        d="M231.28,195.72h5l9.08,24.08h.08l9.08-24.08h5v29h-3.65V200.87h-.08L247,224.7h-3.25L235,200.87h-.08V224.7h-3.65Z" />
      <path class="cls-1"
        d="M273.79,225.27c-6.32,0-10.13-4.46-10.13-10.9s3.81-10.91,10.13-10.91,10.09,4.46,10.09,10.91S280.08,225.27,273.79,225.27Zm0-2.84c4.62,0,6.85-3.65,6.85-8.06s-2.23-8.07-6.85-8.07-6.89,3.65-6.89,8.07S269.13,222.43,273.79,222.43Z" />
      <path class="cls-1" d="M288.14,204l5.71,17.43h0L299.61,204h3.52l-7.41,20.67H292L284.61,204Z" />
      <path class="cls-1"
        d="M305.44,198.07a2,2,0,0,1,2-1.94,1.95,1.95,0,1,1,0,3.89A2,2,0,0,1,305.44,198.07Zm3.65,6V224.7h-3.24V204Z" />
      <path class="cls-1"
        d="M331,210.27V224.7h-3.24V211.08c0-2.67-1.25-4.78-4.5-4.78-3.64,0-6.08,2.31-6.08,5.51V224.7H314V204h3.24v2.47h.09a8.24,8.24,0,0,1,6.81-3C327.85,203.46,331,205.53,331,210.27Z" />
      <path class="cls-1"
        d="M353.3,204v19.54c0,5.51-3.48,8.3-9.16,8.3s-9-3-9.36-6.52H338c.41,2.11,2.11,3.69,6,3.69s6.08-1.66,6.08-5.51v-3.12H350a7.37,7.37,0,0,1-6.57,3.24c-5.1,0-9.24-3.29-9.24-10.09s4.14-10.1,9.24-10.1a7.75,7.75,0,0,1,6.57,3.13h.08V204Zm-3.24,9.53c0-4.87-2.39-7.26-6.24-7.26-4.26,0-6.4,3.2-6.4,7.26s2.14,7.25,6.4,7.25C347.67,220.81,350.06,218.42,350.06,213.56Z" />
      <path class="cls-1"
        d="M370.81,206.87v12.44c0,2.35,1.29,2.76,4.05,2.55v2.84a11.64,11.64,0,0,1-2.43.24c-2.76,0-4.86-1.09-4.86-5.3V206.87h-3V204h3v-6.89h3.24V204h4.05v2.84Z" />
      <path class="cls-1"
        d="M395.33,210.27V224.7h-3.24V211.08c0-2.67-1.26-4.78-4.5-4.78-3.65,0-6.08,2.31-6.08,5.51V224.7h-3.25v-29h3.25V206.5h.08a8.24,8.24,0,0,1,6.81-3C392.17,203.46,395.33,205.53,395.33,210.27Z" />
      <path class="cls-1"
        d="M414.5,218.34h3.24a9,9,0,0,1-9.16,6.93c-6.28,0-10.09-4.42-10.09-10.9,0-6.89,3.89-10.91,9.93-10.91,6.48,0,9.64,4.42,9.64,11.76H401.73c0,3.73,2.23,7.21,6.73,7.21C412.59,222.43,414.13,219.76,414.5,218.34Zm-12.77-6h13.09a6.05,6.05,0,0,0-6.4-6.08C404.52,206.3,401.73,209.06,401.73,212.38Z" />
      <path class="cls-1" d="M446.43,208.37v3.24H433.5V224.7h-3.65v-29h19.66V199h-16v9.4Z" />
      <path class="cls-1"
        d="M452.79,198.07a2,2,0,0,1,2-1.94,1.95,1.95,0,1,1,0,3.89A2,2,0,0,1,452.79,198.07Zm3.65,6V224.7h-3.25V204Z" />
      <path class="cls-1" d="M464.26,195.72v29H461v-29Z" />
      <path class="cls-1"
        d="M468.43,198.07a2,2,0,0,1,2-1.94,1.95,1.95,0,1,1,0,3.89A2,2,0,0,1,468.43,198.07Zm3.65,6V224.7h-3.24V204Z" />
      <path class="cls-1"
        d="M496.07,214.37c0,6.81-4.13,10.9-9.24,10.9a7.38,7.38,0,0,1-6.57-3.24h-.08v9.64h-3.24V204h3.24v2.56h.08a7.77,7.77,0,0,1,6.57-3.13C491.94,203.46,496.07,207.56,496.07,214.37Zm-3.24,0c0-4.06-2.15-8.07-6.41-8.07-3.84,0-6.24,3.2-6.24,8.07s2.4,8.06,6.24,8.06C490.68,222.43,492.83,218.42,492.83,214.37Z" />
      <path class="cls-1"
        d="M499.47,198.07a2,2,0,0,1,2-1.94,1.95,1.95,0,1,1,0,3.89A2,2,0,0,1,499.47,198.07Zm3.65,6V224.7h-3.24V204Z" />
      <path class="cls-1"
        d="M525.05,210.27V224.7H521.8V211.08c0-2.67-1.25-4.78-4.5-4.78-3.64,0-6.07,2.31-6.07,5.51V224.7H508V204h3.25v2.47h.08a8.23,8.23,0,0,1,6.8-3C521.88,203.46,525.05,205.53,525.05,210.27Z" />
      <path class="cls-1"
        d="M538.34,225.27c-6.33,0-10.13-4.46-10.13-10.9s3.8-10.91,10.13-10.91,10.09,4.46,10.09,10.91S544.62,225.27,538.34,225.27Zm0-2.84c4.62,0,6.85-3.65,6.85-8.06s-2.23-8.07-6.85-8.07-6.89,3.65-6.89,8.07S533.68,222.43,538.34,222.43Z" />
      <path class="cls-1"
        d="M564.6,201.11V204h3.93v2.84H564.6V224.7h-3.25V206.87h-2.87V204h2.87v-3.24c0-4.21,2.11-5.31,4.87-5.31a11.33,11.33,0,0,1,2.31.24v2.84C565.77,198.36,564.6,198.76,564.6,201.11Z" />
      <path class="cls-1"
        d="M580,225.27c-6.33,0-10.13-4.46-10.13-10.9s3.8-10.91,10.13-10.91,10.09,4.46,10.09,10.91S586.32,225.27,580,225.27Zm0-2.84c4.62,0,6.85-3.65,6.85-8.06s-2.23-8.07-6.85-8.07-6.89,3.65-6.89,8.07S575.38,222.43,580,222.43Z" />
      <path class="cls-1"
        d="M604.35,203.59v3.24h-.08c-4.5-.73-7.62,2.43-7.62,6.85v11h-3.24V204h3.24v4.1h.08c1.1-2.72,2.76-4.67,5.72-4.67A12.88,12.88,0,0,1,604.35,203.59Z" />
      <path class="cls-1"
        d="M608.81,204l4.7,17.15h.08L618.21,204h3.45l4.66,17.15h.08L631.1,204h3.57l-6.61,20.67h-3.45L620,207.64h-.08l-4.58,17.06h-3.44L605.24,204Z" />
      <path class="cls-1"
        d="M644.88,206.3c-3.94,0-5.23,1.14-5.44,4.14H636.2c.21-4,2.68-7,8.68-7,3.93,0,7.45,1.54,7.45,6.53v10c0,1.62.29,2.51,2.35,2.27v2.27a5.22,5.22,0,0,1-1.9.32c-1.95,0-3.12-.52-3.69-2.79H649c-1.3,1.94-3.61,3.16-7,3.16-4.18,0-6.81-2.39-6.81-5.88,0-4.7,3.48-5.91,8.83-6.93,3.49-.65,5.07-1.09,5.07-3.16C649.09,207.68,648.2,206.3,644.88,206.3Zm4.21,10.42v-3.45c-.61.61-2.59,1.18-4.78,1.62-4,.85-5.88,1.87-5.88,4.34,0,2,1.22,3.2,3.89,3.2C646.17,222.43,649.09,220.69,649.09,216.72Z" />
      <path class="cls-1"
        d="M668.06,203.59v3.24H668c-4.49-.73-7.62,2.43-7.62,6.85v11h-3.24V204h3.24v4.1h.09c1.09-2.72,2.75-4.67,5.71-4.67A13,13,0,0,1,668.06,203.59Z" />
      <path class="cls-1"
        d="M688.16,195.72v29h-3.25v-2.55h-.08a7.71,7.71,0,0,1-6.48,3.12c-5.19,0-9.32-4.09-9.32-10.9s4.13-10.91,9.32-10.91a7.28,7.28,0,0,1,6.48,3.25h.08v-11Zm-3.25,18.65c0-4.87-2.39-8.07-6.24-8.07-4.25,0-6.4,4-6.4,8.07s2.15,8.06,6.4,8.06C682.52,222.43,684.91,219.23,684.91,214.37Z" />
    </g>
  </g>
</svg>